{
    "accessors" : [
        {
            "bufferView" : 0, 
            "componentType" : 5123, 
            "count" : 1878, 
            "max" : [
                1877
            ], 
            "min" : [
                0
            ], 
            "type" : "SCALAR"
        }, 
        {
            "bufferView" : 1, 
            "componentType" : 5126, 
            "count" : 1878, 
            "max" : [
                53.1324462890625, 
                19.79094696044922, 
                4.692080974578857
            ], 
            "min" : [
                -53.082828521728516, 
                -26.33626365661621, 
                -5.872432231903076
            ], 
            "type" : "VEC3"
        }, 
        {
            "bufferView" : 2, 
            "componentType" : 5126, 
            "count" : 1878, 
            "max" : [
                0.9978531002998352, 
                0.9573614001274109, 
                0.999998927116394
            ], 
            "min" : [
                -0.9978531002998352, 
                -0.9885324239730835, 
                -0.9999723434448242
            ], 
            "type" : "VEC3"
        }, 
        {
            "bufferView" : 3, 
            "componentType" : 5126, 
            "count" : 1878, 
            "max" : [
                36.896568298339844, 
                39.454830169677734, 
                3.544349193572998
            ], 
            "min" : [
                -37.53797912597656, 
                -50.788944244384766, 
                -50.18040084838867
            ], 
            "type" : "VEC3"
        }, 
        {
            "bufferView" : 4, 
            "componentType" : 5126, 
            "count" : 1878, 
            "max" : [
                1.9836753606796265, 
                1.0039564371109009, 
                1.9921350479125977
            ], 
            "min" : [
                -1.9763092994689941, 
                -1.1393545866012573, 
                -1.9966055154800415
            ], 
            "type" : "VEC3"
        }, 
        {
            "bufferView" : 5, 
            "componentType" : 5126, 
            "count" : 1878, 
            "max" : [
                20.99197006225586, 
                39.513816833496094, 
                3.31707763671875
            ], 
            "min" : [
                -23.02946662902832, 
                -50.80694580078125, 
                -41.462406158447266
            ], 
            "type" : "VEC3"
        }, 
        {
            "bufferView" : 6, 
            "componentType" : 5126, 
            "count" : 1878, 
            "max" : [
                1.9838907718658447, 
                1.0043479204177856, 
                1.997988224029541
            ], 
            "min" : [
                -1.9760448932647705, 
                -1.1456488370895386, 
                -1.9965500831604004
            ], 
            "type" : "VEC3"
        }, 
        {
            "bufferView" : 7, 
            "componentType" : 5126, 
            "count" : 1878, 
            "max" : [
                7.072479248046875, 
                39.49656295776367, 
                2.733933687210083
            ], 
            "min" : [
                -8.075496673583984, 
                -50.76371765136719, 
                -24.15633201599121
            ], 
            "type" : "VEC3"
        }, 
        {
            "bufferView" : 8, 
            "componentType" : 5126, 
            "count" : 1878, 
            "max" : [
                1.9843471050262451, 
                1.0046027898788452, 
                1.9990789890289307
            ], 
            "min" : [
                -1.9753320217132568, 
                -1.2840430736541748, 
                -1.9945756196975708
            ], 
            "type" : "VEC3"
        }, 
        {
            "bufferView" : 9, 
            "componentType" : 5126, 
            "count" : 1878, 
            "max" : [
                10.250957489013672, 
                39.37154006958008, 
                26.60195541381836
            ], 
            "min" : [
                -7.409217834472656, 
                -50.71200942993164, 
                -3.1927733421325684
            ], 
            "type" : "VEC3"
        }, 
        {
            "bufferView" : 10, 
            "componentType" : 5126, 
            "count" : 1878, 
            "max" : [
                1.9847902059555054, 
                1.0047485828399658, 
                1.997795581817627
            ], 
            "min" : [
                -1.9742989540100098, 
                -1.1511385440826416, 
                -1.9914535284042358
            ], 
            "type" : "VEC3"
        }, 
        {
            "bufferView" : 11, 
            "componentType" : 5126, 
            "count" : 1878, 
            "max" : [
                40.1861686706543, 
                39.239173889160156, 
                45.77298355102539
            ], 
            "min" : [
                -41.30931091308594, 
                -50.69869613647461, 
                -3.66367769241333
            ], 
            "type" : "VEC3"
        }, 
        {
            "bufferView" : 12, 
            "componentType" : 5126, 
            "count" : 1878, 
            "max" : [
                1.9850801229476929, 
                1.0048552751541138, 
                1.9974403381347656
            ], 
            "min" : [
                -1.9731557369232178, 
                -1.1498219966888428, 
                -1.9907517433166504
            ], 
            "type" : "VEC3"
        }, 
        {
            "bufferView" : 13, 
            "componentType" : 5126, 
            "count" : 1878, 
            "max" : [
                40.039031982421875, 
                39.14445495605469, 
                40.95854187011719
            ], 
            "min" : [
                -42.56332778930664, 
                -50.763729095458984, 
                -3.7784314155578613
            ], 
            "type" : "VEC3"
        }, 
        {
            "bufferView" : 14, 
            "componentType" : 5126, 
            "count" : 1878, 
            "max" : [
                1.985180377960205, 
                1.0048717260360718, 
                1.9991816282272339
            ], 
            "min" : [
                -1.97220778465271, 
                -1.1472586393356323, 
                -1.9950422048568726
            ], 
            "type" : "VEC3"
        }, 
        {
            "bufferView" : 15, 
            "componentType" : 5126, 
            "count" : 1878, 
            "max" : [
                31.176891326904297, 
                39.112823486328125, 
                33.07312774658203
            ], 
            "min" : [
                -36.01294708251953, 
                -50.79949951171875, 
                -4.4708356857299805
            ], 
            "type" : "VEC3"
        }, 
        {
            "bufferView" : 16, 
            "componentType" : 5126, 
            "count" : 1878, 
            "max" : [
                1.9851104021072388, 
                1.0047550201416016, 
                1.998365879058838
            ], 
            "min" : [
                -1.9718130826950073, 
                -1.173898458480835, 
                -1.996625542640686
            ], 
            "type" : "VEC3"
        }, 
        {
            "bufferView" : 17, 
            "componentType" : 5126, 
            "count" : 1878, 
            "max" : [
                20.86376190185547, 
                39.13078308105469, 
                22.736644744873047
            ], 
            "min" : [
                -27.234487533569336, 
                -50.7460823059082, 
                -11.605795860290527
            ], 
            "type" : "VEC3"
        }, 
        {
            "bufferView" : 18, 
            "componentType" : 5126, 
            "count" : 1878, 
            "max" : [
                1.9849071502685547, 
                1.394646167755127, 
                1.987993836402893
            ], 
            "min" : [
                -1.9723646640777588, 
                -1.6008716821670532, 
                -1.9970109462738037
            ], 
            "type" : "VEC3"
        }, 
        {
            "bufferView" : 19, 
            "componentType" : 5126, 
            "count" : 1878, 
            "max" : [
                13.344482421875, 
                39.18739318847656, 
                11.562862396240234
            ], 
            "min" : [
                -18.868453979492188, 
                -50.69672393798828, 
                -16.142488479614258
            ], 
            "type" : "VEC3"
        }, 
        {
            "bufferView" : 20, 
            "componentType" : 5126, 
            "count" : 1878, 
            "max" : [
                1.9845820665359497, 
                1.4851535558700562, 
                1.9883131980895996
            ], 
            "min" : [
                -1.9736087322235107, 
                -1.672374963760376, 
                -1.9922211170196533
            ], 
            "type" : "VEC3"
        }, 
        {
            "bufferView" : 21, 
            "componentType" : 5126, 
            "count" : 1878, 
            "max" : [
                8.214534759521484, 
                39.279869079589844, 
                3.0784597396850586
            ], 
            "min" : [
                -9.143280029296875, 
                -50.69775390625, 
                -22.30472183227539
            ], 
            "type" : "VEC3"
        }, 
        {
            "bufferView" : 22, 
            "componentType" : 5126, 
            "count" : 1878, 
            "max" : [
                1.9841856956481934, 
                1.1024924516677856, 
                1.9882526397705078
            ], 
            "min" : [
                -1.974947452545166, 
                -1.3847651481628418, 
                -1.992241382598877
            ], 
            "type" : "VEC3"
        }, 
        {
            "bufferView" : 23, 
            "componentType" : 5126, 
            "count" : 1878, 
            "max" : [
                14.421661376953125, 
                39.38304138183594, 
                3.3171374797821045
            ], 
            "min" : [
                -12.746940612792969, 
                -50.741600036621094, 
                -35.99168395996094
            ], 
            "type" : "VEC3"
        }, 
        {
            "bufferView" : 24, 
            "componentType" : 5126, 
            "count" : 1878, 
            "max" : [
                1.9838303327560425, 
                1.0038394927978516, 
                1.9878268241882324
            ], 
            "min" : [
                -1.9759347438812256, 
                -1.137168526649475, 
                -1.994567632675171
            ], 
            "type" : "VEC3"
        }, 
        {
            "bufferView" : 25, 
            "componentType" : 5126, 
            "count" : 11, 
            "max" : [
                0.41666666666666663
            ], 
            "min" : [
                0.0
            ], 
            "type" : "SCALAR"
        }, 
        {
            "bufferView" : 26, 
            "componentType" : 5126, 
            "count" : 121, 
            "max" : [
                1.0
            ], 
            "min" : [
                0.0
            ], 
            "type" : "SCALAR"
        }
    ], 
    "animations" : [
        {
            "channels" : [
                {
                    "sampler" : 0, 
                    "target" : {
                        "node" : 0, 
                        "path" : "weights"
                    }
                }
            ], 
            "samplers" : [
                {
                    "input" : 25, 
                    "interpolation" : "LINEAR", 
                    "output" : 26
                }
            ]
        }
    ], 
    "asset" : {
        "generator" : "Khronos Blender glTF 2.0 exporter", 
        "version" : "2.0"
    }, 
    "bufferViews" : [
        {
            "buffer" : 0, 
            "byteLength" : 3756, 
            "byteOffset" : 0, 
            "target" : 34963
        }, 
        {
            "buffer" : 0, 
            "byteLength" : 22536, 
            "byteOffset" : 3756, 
            "target" : 34962
        }, 
        {
            "buffer" : 0, 
            "byteLength" : 22536, 
            "byteOffset" : 26292, 
            "target" : 34962
        }, 
        {
            "buffer" : 0, 
            "byteLength" : 22536, 
            "byteOffset" : 48828
        }, 
        {
            "buffer" : 0, 
            "byteLength" : 22536, 
            "byteOffset" : 71364
        }, 
        {
            "buffer" : 0, 
            "byteLength" : 22536, 
            "byteOffset" : 93900
        }, 
        {
            "buffer" : 0, 
            "byteLength" : 22536, 
            "byteOffset" : 116436
        }, 
        {
            "buffer" : 0, 
            "byteLength" : 22536, 
            "byteOffset" : 138972
        }, 
        {
            "buffer" : 0, 
            "byteLength" : 22536, 
            "byteOffset" : 161508
        }, 
        {
            "buffer" : 0, 
            "byteLength" : 22536, 
            "byteOffset" : 184044
        }, 
        {
            "buffer" : 0, 
            "byteLength" : 22536, 
            "byteOffset" : 206580
        }, 
        {
            "buffer" : 0, 
            "byteLength" : 22536, 
            "byteOffset" : 229116
        }, 
        {
            "buffer" : 0, 
            "byteLength" : 22536, 
            "byteOffset" : 251652
        }, 
        {
            "buffer" : 0, 
            "byteLength" : 22536, 
            "byteOffset" : 274188
        }, 
        {
            "buffer" : 0, 
            "byteLength" : 22536, 
            "byteOffset" : 296724
        }, 
        {
            "buffer" : 0, 
            "byteLength" : 22536, 
            "byteOffset" : 319260
        }, 
        {
            "buffer" : 0, 
            "byteLength" : 22536, 
            "byteOffset" : 341796
        }, 
        {
            "buffer" : 0, 
            "byteLength" : 22536, 
            "byteOffset" : 364332
        }, 
        {
            "buffer" : 0, 
            "byteLength" : 22536, 
            "byteOffset" : 386868
        }, 
        {
            "buffer" : 0, 
            "byteLength" : 22536, 
            "byteOffset" : 409404
        }, 
        {
            "buffer" : 0, 
            "byteLength" : 22536, 
            "byteOffset" : 431940
        }, 
        {
            "buffer" : 0, 
            "byteLength" : 22536, 
            "byteOffset" : 454476
        }, 
        {
            "buffer" : 0, 
            "byteLength" : 22536, 
            "byteOffset" : 477012
        }, 
        {
            "buffer" : 0, 
            "byteLength" : 22536, 
            "byteOffset" : 499548
        }, 
        {
            "buffer" : 0, 
            "byteLength" : 22536, 
            "byteOffset" : 522084
        }, 
        {
            "buffer" : 0, 
            "byteLength" : 44, 
            "byteOffset" : 544620
        }, 
        {
            "buffer" : 0, 
            "byteLength" : 484, 
            "byteOffset" : 544664
        }
    ], 
    "buffers" : [
        {
            "byteLength" : 545148, 
            "uri" : "data:application/octet-stream;base64,"
        }
    ], 
    "materials" : [
        {
            "name" : "bodySG", 
            "pbrMetallicRoughness" : {
                "baseColorFactor" : [
                    0.07000000029802322, 
                    0.10999999940395355, 
                    0.14000000059604645, 
                    1.0
                ], 
                "metallicFactor" : 0.0
            }
        }
    ], 
    "meshes" : [
        {
            "name" : "raven_colorMap", 
            "primitives" : [
                {
                    "attributes" : {
                        "NORMAL" : 2, 
                        "POSITION" : 1
                    }, 
                    "indices" : 0, 
                    "material" : 0, 
                    "targets" : [
                        {
                            "NORMAL" : 4, 
                            "POSITION" : 3
                        }, 
                        {
                            "NORMAL" : 6, 
                            "POSITION" : 5
                        }, 
                        {
                            "NORMAL" : 8, 
                            "POSITION" : 7
                        }, 
                        {
                            "NORMAL" : 10, 
                            "POSITION" : 9
                        }, 
                        {
                            "NORMAL" : 12, 
                            "POSITION" : 11
                        }, 
                        {
                            "NORMAL" : 14, 
                            "POSITION" : 13
                        }, 
                        {
                            "NORMAL" : 16, 
                            "POSITION" : 15
                        }, 
                        {
                            "NORMAL" : 18, 
                            "POSITION" : 17
                        }, 
                        {
                            "NORMAL" : 20, 
                            "POSITION" : 19
                        }, 
                        {
                            "NORMAL" : 22, 
                            "POSITION" : 21
                        }, 
                        {
                            "NORMAL" : 24, 
                            "POSITION" : 23
                        }
                    ]
                }
            ], 
            "weights" : [
                0.0, 
                0.0, 
                0.0, 
                0.0, 
                0.0, 
                0.0, 
                0.0, 
                0.0, 
                0.0, 
                0.0, 
                0.0
            ]
        }
    ], 
    "nodes" : [
        {
            "mesh" : 0, 
            "name" : "raven_colorMap", 
            "rotation" : [
                0.7071068286895752, 
                0.0, 
                -0.0, 
                0.7071067094802856
            ]
        }
    ], 
    "scene" : 0, 
    "scenes" : [
        {
            "name" : "Scene", 
            "nodes" : [
                0
            ]
        }
    ]
}
